<?xml version="1.0" encoding="UTF-8" standalone="no"?>
<svg width="384px" height="384px" viewBox="0 0 384 384" version="1.1" xmlns="http://www.w3.org/2000/svg" xmlns:xlink="http://www.w3.org/1999/xlink" xmlns:sketch="http://www.bohemiancoding.com/sketch/ns">
    <!-- Generator: Sketch 3.3.1 (12005) - http://www.bohemiancoding.com/sketch -->
    <title>Slice 1</title>
    <desc>Created with Sketch.</desc>
    <defs></defs>
    <g id="Page-1" stroke="none" stroke-width="1" fill="none" fill-rule="evenodd" sketch:type="MSPage">
        <path d="M0,312 L312,0" id="Line" stroke="#CCCCCC" stroke-width="2" stroke-linecap="square" sketch:type="MSShapeGroup"></path>
        <path d="M24,384 L408,0" id="Line-Copy-3" stroke="#333333" stroke-linecap="square" sketch:type="MSShapeGroup"></path>
        <path d="M216,384 L384,216" id="Line-Copy-6" stroke="#333333" stroke-linecap="square" sketch:type="MSShapeGroup"></path>
        <path d="M120,384 L384,120" id="Line-Copy-4" stroke="#CCCCCC" stroke-width="2" stroke-linecap="square" sketch:type="MSShapeGroup"></path>
        <path d="M312,384 L383.999997,312" id="Line-Copy-7" stroke="#CCCCCC" stroke-width="2" stroke-linecap="square" sketch:type="MSShapeGroup"></path>
        <path d="M-24,240 L216,0" id="Line-Copy" stroke="#333333" stroke-linecap="square" sketch:type="MSShapeGroup"></path>
        <path d="M24,0 L0,24" id="Line-Copy-5" stroke="#333333" stroke-linecap="square" sketch:type="MSShapeGroup"></path>
        <path d="M0,120 L120,0" id="Line-Copy-2" stroke="#CCCCCC" stroke-width="2" stroke-linecap="square" sketch:type="MSShapeGroup"></path>
        <path d="M144,114.666667 L144,117.333333 L152,117.333333 L152,114.666667 L144,114.666667 L144,114.666667 Z M144,98.6666667 L144,101.333333 L157.333333,101.333333 L157.333333,98.6666667 L144,98.6666667 L144,98.6666667 Z M157.333333,120 L157.333333,117.333333 L168,117.333333 L168,114.666667 L157.333333,114.666667 L157.333333,112 L154.666667,112 L154.666667,120 L157.333333,120 L157.333333,120 Z M149.333333,104 L149.333333,106.666667 L144,106.666667 L144,109.333333 L149.333333,109.333333 L149.333333,112 L152,112 L152,104 L149.333333,104 L149.333333,104 Z M168,109.333333 L168,106.666667 L154.666667,106.666667 L154.666667,109.333333 L168,109.333333 L168,109.333333 Z M160,104 L162.666667,104 L162.666667,101.333333 L168,101.333333 L168,98.6666667 L162.666667,98.6666667 L162.666667,96 L160,96 L160,104 L160,104 Z" id="Shape" fill="#000000" sketch:type="MSShapeGroup"></path>
        <path d="M192,61.3333333 L202.666667,61.3333333 L202.666667,48 L192,48 L192,61.3333333 L192,61.3333333 Z M192,72 L202.666667,72 L202.666667,64 L192,64 L192,72 L192,72 Z M205.333333,72 L216,72 L216,58.6666667 L205.333333,58.6666667 L205.333333,72 L205.333333,72 Z M205.333333,48 L205.333333,56 L216,56 L216,48 L205.333333,48 L205.333333,48 Z" id="Shape" fill="#000000" sketch:type="MSShapeGroup"></path>
        <path d="M102,168 L114,168 L114,144 L102,144 L102,168 L102,168 Z M96,164.8 L100.8,164.8 L100.8,147.2 L96,147.2 L96,164.8 L96,164.8 Z M115.2,147.2 L115.2,164.8 L120,164.8 L120,147.2 L115.2,147.2 L115.2,147.2 Z" id="Shape" fill="#000000" sketch:type="MSShapeGroup"></path>
        <path d="M70,211 L70,196 L50,196 L50,211 L48,211 L48,213 L72,213 L72,211 L70,211 L70,211 Z M62,211 L58,211 L58,210 L62,210 L62,211 L62,211 Z M68,208 L52,208 L52,198 L68,198 L68,208 L68,208 Z" id="Shape" fill="#000000" sketch:type="MSShapeGroup"></path>
        <path d="M128.728889,40.184444 L135.821111,40.184444 C137.326844,40.184444 138.548888,38.9623996 138.548888,37.4566663 C138.548888,35.950933 137.326844,34.7288886 135.821111,34.7288886 L135.766555,34.7288886 C135.499233,32.8794553 133.922577,31.4555554 132.002222,31.4555554 C130.474666,31.4555554 129.165333,32.3611776 128.554311,33.6595998 L128.374278,33.6595998 C126.732155,33.8341775 125.455555,35.2253442 125.455555,36.9111108 C125.455555,38.7168996 126.9231,40.184444 128.728889,40.184444 L128.728889,40.184444 Z M141.822222,26 L122.182222,26 C120.976544,26 120,26.9765444 120,28.1822222 L120,43.4577772 C120,44.663455 120.976544,45.6399994 122.182222,45.6399994 L141.822222,45.6399994 C143.027899,45.6399994 144.004444,44.663455 144.004444,43.4577772 L144.004444,28.1822222 C144.004444,26.9765444 143.027899,26 141.822222,26 L141.822222,26 Z M141.822222,43.4741439 L122.182222,43.4741439 L122.182222,28.1658555 L141.822222,28.1658555 L141.822222,43.4741439 L141.822222,43.4741439 Z" id="Shape" fill="#000000" sketch:type="MSShapeGroup"></path>
        <path d="M77.0514287,74.7689554 L73.2628572,74.7689554 C72.5682857,74.7689554 72,75.3372411 72,76.0318126 L72,91.1860985 C72,91.88067 72.5682857,92.4489557 73.2628572,92.4489557 L77.0514287,92.4489557 C77.7460001,92.4489557 78.3142858,91.88067 78.3142858,91.1860985 L78.3142858,76.0318126 C78.3142858,75.3372411 77.7460001,74.7689554 77.0514287,74.7689554 L77.0514287,74.7689554 Z M94.731429,74.7689554 L90.9428575,74.7689554 C90.248286,74.7689554 89.6800003,75.3372411 89.6800003,76.0318126 L89.6800003,91.1860985 C89.6800003,91.88067 90.248286,92.4489557 90.9428575,92.4489557 L94.731429,92.4489557 C95.4260004,92.4489557 95.9942861,91.88067 95.9942861,91.1860985 L95.9942861,76.0318126 C95.9942861,75.3372411 95.4260004,74.7689554 94.731429,74.7689554 L94.731429,74.7689554 Z M85.8914288,74.7689554 L82.1028573,74.7689554 C81.4082859,74.7689554 80.8400002,75.3372411 80.8400002,76.0318126 L80.8400002,91.1860985 C80.8400002,91.88067 81.4082859,92.4489557 82.1028573,92.4489557 L85.8914288,92.4489557 C86.5860003,92.4489557 87.154286,91.88067 87.154286,91.1860985 L87.154286,76.0318126 C87.154286,75.3372411 86.5860003,74.7689554 85.8914288,74.7689554 L85.8914288,74.7689554 Z" id="Shape" fill="#000000" sketch:type="MSShapeGroup"></path>
        <path d="M35.994,120 C29.364,120 24,125.37 24,132 C24,138.63 29.364,144 35.994,144 C42.624,144 48,138.63 48,132 C48,125.37 42.624,120 35.994,120 L35.994,120 Z M44.304,127.2 L40.764,127.2 C40.374,125.7 39.828,124.26 39.108,122.928 C41.316,123.684 43.152,125.214 44.304,127.2 L44.304,127.2 Z M36,122.442 C37.002,123.882 37.782,125.484 38.292,127.2 L33.708,127.2 C34.218,125.484 34.998,123.882 36,122.442 L36,122.442 Z M26.712,134.4 C26.514,133.632 26.4,132.828 26.4,132 C26.4,131.172 26.514,130.368 26.712,129.6 L30.762,129.6 C30.666,130.386 30.6,131.184 30.6,132 C30.6,132.816 30.666,133.614 30.768,134.4 L26.712,134.4 L26.712,134.4 Z M27.69,136.8 L31.23,136.8 C31.62,138.3 32.166,139.74 32.886,141.078 C30.678,140.322 28.842,138.786 27.69,136.8 L27.69,136.8 Z M31.23,127.2 L27.69,127.2 C28.842,125.214 30.678,123.678 32.886,122.922 C32.166,124.26 31.62,125.7 31.23,127.2 L31.23,127.2 Z M36,141.558 C35.004,140.118 34.224,138.516 33.708,136.8 L38.292,136.8 C37.776,138.516 36.996,140.118 36,141.558 L36,141.558 Z M38.808,134.4 L33.192,134.4 C33.078,133.614 33,132.816 33,132 C33,131.184 33.078,130.386 33.192,129.6 L38.808,129.6 C38.922,130.386 39,131.184 39,132 C39,132.816 38.922,133.614 38.808,134.4 L38.808,134.4 Z M39.114,141.072 C39.834,139.734 40.38,138.3 40.77,136.8 L44.31,136.8 C43.152,138.786 41.316,140.316 39.114,141.072 L39.114,141.072 Z M41.232,134.4 C41.328,133.614 41.4,132.816 41.4,132 C41.4,131.184 41.334,130.386 41.232,129.6 L45.282,129.6 C45.48,130.368 45.6,131.172 45.6,132 C45.6,132.828 45.486,133.632 45.282,134.4 L41.232,134.4 L41.232,134.4 Z" id="Shape" fill="#000000" sketch:type="MSShapeGroup"></path>
        <path d="M7.6229107,66.2415035 L1.93131936,60.5499121 L-1.77635684e-15,62.4812315 L7.6229107,70.1041422 L24.0015908,53.7254621 L22.0702714,51.7941427 L7.6229107,66.2415035 Z" id="Shape" fill="#000000" sketch:type="MSShapeGroup"></path>
        <path d="M121.415261,236.431896 L122.961276,237.069842 L122.961276,226.696028 L120.173852,233.426076 C119.691082,234.592771 120.248567,235.943378 121.415261,236.431896 L121.415261,236.431896 Z M143.829596,232.167425 L138.128309,218.414219 C137.771979,217.552129 136.932878,217.017634 136.053546,217.000392 C135.748941,216.994645 135.438589,217.052117 135.133984,217.17281 L126.668262,220.678642 C125.806172,221.034972 125.277424,221.868326 125.254435,222.747657 C125.248687,223.05801 125.300413,223.368362 125.426853,223.672967 L131.122393,237.426173 C131.48447,238.299757 132.329318,238.828506 133.225892,238.84 C133.52475,238.84 133.823607,238.788275 134.116718,238.667582 L142.58244,235.16175 C143.749135,234.67898 144.312367,233.33412 143.829596,232.167425 L143.829596,232.167425 Z M127.559088,223.89711 C126.926889,223.89711 126.409635,223.379856 126.409635,222.747657 C126.409635,222.115458 126.926889,221.598204 127.559088,221.598204 C128.191287,221.598204 128.708541,222.115458 128.708541,222.747657 C128.708541,223.379856 128.191287,223.89711 127.559088,223.89711 L127.559088,223.89711 Z M125.260182,236.541094 C125.260182,237.805492 126.29469,238.84 127.559088,238.84 L129.231542,238.84 L125.260182,229.253562 L125.260182,236.541094 L125.260182,236.541094 Z" id="Shape" fill="#000000" sketch:type="MSShapeGroup"></path>
        <path d="M232.325455,130.129091 L229.325455,133.990909 L227.181818,131.416364 L224.181818,135.272727 L236.181818,135.272727 L232.325455,130.129091 L232.325455,130.129091 Z M218.181818,124.363636 L216,124.363636 L216,141.818182 C216,143.023636 216.976364,144 218.181818,144 L235.636364,144 L235.636364,141.818182 L218.181818,141.818182 L218.181818,124.363636 L218.181818,124.363636 Z M237.818182,120 L222.545455,120 C221.34,120 220.363636,120.976364 220.363636,122.181818 L220.363636,137.454545 C220.363636,138.66 221.34,139.636364 222.545455,139.636364 L237.818182,139.636364 C239.023636,139.636364 240,138.66 240,137.454545 L240,122.181818 C240,120.976364 239.023636,120 237.818182,120 L237.818182,120 Z M237.818182,137.454545 L222.545455,137.454545 L222.545455,122.181818 L237.818182,122.181818 L237.818182,137.454545 L237.818182,137.454545 Z" id="Shape" fill="#000000" sketch:type="MSShapeGroup"></path>
        <path d="M184.544546,168 L175.817273,168 C174.311818,168 173.09,169.221818 173.09,170.727273 L173.09,189.272727 C173.09,190.778182 174.311818,192 175.817273,192 L184.544546,192 C186.05,192 187.271818,190.778182 187.271818,189.272727 L187.271818,170.727273 C187.271818,169.221818 186.05,168 184.544546,168 L184.544546,168 Z M180.180909,190.909091 C179.275455,190.909091 178.544546,190.178182 178.544546,189.272727 C178.544546,188.367273 179.275455,187.636364 180.180909,187.636364 C181.086364,187.636364 181.817273,188.367273 181.817273,189.272727 C181.817273,190.178182 181.086364,190.909091 180.180909,190.909091 L180.180909,190.909091 Z M185.09,186.545455 L175.271818,186.545455 L175.271818,171.272727 L185.09,171.272727 L185.09,186.545455 L185.09,186.545455 Z" id="Shape" fill="#000000" sketch:type="MSShapeGroup"></path>
        <path d="M255.6,198.6 L255.6,192 L248.4,192 L248.4,198.6 L252,202.2 L255.6,198.6 L255.6,198.6 Z M246.6,200.4 L240,200.4 L240,207.6 L246.6,207.6 L250.2,204 L246.6,200.4 L246.6,200.4 Z M248.4,209.4 L248.4,216 L255.6,216 L255.6,209.4 L252,205.8 L248.4,209.4 L248.4,209.4 Z M257.4,200.4 L253.8,204 L257.4,207.6 L264,207.6 L264,200.4 L257.4,200.4 L257.4,200.4 Z" id="Shape" fill="#000000" sketch:type="MSShapeGroup"></path>
        <path d="M192,252.996667 L194.665556,252.996667 L194.665556,250.331111 L192,250.331111 L192,252.996667 L192,252.996667 Z M192,258.327778 L194.665556,258.327778 L194.665556,255.662222 L192,255.662222 L192,258.327778 L192,258.327778 Z M192,247.665556 L194.665556,247.665556 L194.665556,245 L192,245 L192,247.665556 L192,247.665556 Z M197.331111,252.996667 L215.99,252.996667 L215.99,250.331111 L197.331111,250.331111 L197.331111,252.996667 L197.331111,252.996667 Z M197.331111,258.327778 L215.99,258.327778 L215.99,255.662222 L197.331111,255.662222 L197.331111,258.327778 L197.331111,258.327778 Z M197.331111,245 L197.331111,247.665556 L215.99,247.665556 L215.99,245 L197.331111,245 L197.331111,245 Z" id="Shape" fill="#000000" sketch:type="MSShapeGroup"></path>
        <path d="M48,22 L52.2352941,22 L52.2352941,3.64705882 L48,3.64705882 L48,22 L48,22 Z M67.7647059,3.64705882 L67.7647059,22 L72,22 L72,3.64705882 L67.7647059,3.64705882 L67.7647059,3.64705882 Z M53.6470588,22 L66.3529412,22 L66.3529412,3.64705882 L53.6470588,3.64705882 L53.6470588,22 L53.6470588,22 Z" id="Shape" fill="#000000" sketch:type="MSShapeGroup"></path>
        <path d="M0,262 L24,262 L24,257.2 L0,257.2 L0,262 L0,262 Z M2.4,258.4 L4.8,258.4 L4.8,260.8 L2.4,260.8 L2.4,258.4 L2.4,258.4 Z M0,242.8 L0,247.6 L24,247.6 L24,242.8 L0,242.8 L0,242.8 Z M4.8,246.4 L2.4,246.4 L2.4,244 L4.8,244 L4.8,246.4 L4.8,246.4 Z M0,254.8 L24,254.8 L24,250 L0,250 L0,254.8 L0,254.8 Z M2.4,251.2 L4.8,251.2 L4.8,253.6 L2.4,253.6 L2.4,251.2 L2.4,251.2 Z" id="Shape" fill="#000000" sketch:type="MSShapeGroup"></path>
        <path d="M84,264 C77.3733333,264 72,269.373333 72,276 C72,282.626667 77.3733333,288 84,288 C85.1066667,288 86,287.106667 86,286 C86,285.48 85.8066667,285.013333 85.48,284.66 C85.1666667,284.306667 84.98,283.846667 84.98,283.333333 C84.98,282.226667 85.8733333,281.333333 86.98,281.333333 L89.3333333,281.333333 C93.0133333,281.333333 96,278.346667 96,274.666667 C96,268.773333 90.6266667,264 84,264 L84,264 Z M76.6666667,276 C75.56,276 74.6666667,275.106667 74.6666667,274 C74.6666667,272.893333 75.56,272 76.6666667,272 C77.7733333,272 78.6666667,272.893333 78.6666667,274 C78.6666667,275.106667 77.7733333,276 76.6666667,276 L76.6666667,276 Z M80.6666667,270.666667 C79.56,270.666667 78.6666667,269.773333 78.6666667,268.666667 C78.6666667,267.56 79.56,266.666667 80.6666667,266.666667 C81.7733333,266.666667 82.6666667,267.56 82.6666667,268.666667 C82.6666667,269.773333 81.7733333,270.666667 80.6666667,270.666667 L80.6666667,270.666667 Z M87.3333333,270.666667 C86.2266667,270.666667 85.3333333,269.773333 85.3333333,268.666667 C85.3333333,267.56 86.2266667,266.666667 87.3333333,266.666667 C88.44,266.666667 89.3333333,267.56 89.3333333,268.666667 C89.3333333,269.773333 88.44,270.666667 87.3333333,270.666667 L87.3333333,270.666667 Z M91.3333333,276 C90.2266667,276 89.3333333,275.106667 89.3333333,274 C89.3333333,272.893333 90.2266667,272 91.3333333,272 C92.44,272 93.3333333,272.893333 93.3333333,274 C93.3333333,275.106667 92.44,276 91.3333333,276 L91.3333333,276 Z" id="Shape" fill="#000000" sketch:type="MSShapeGroup"></path>
        <path d="M285.818182,267 L266.181818,267 C264.976364,267 264,267.976364 264,269.181818 L264,282.272727 C264,283.478182 264.976364,284.454545 266.181818,284.454545 L271.636364,284.454545 L271.636364,286.636364 L280.363636,286.636364 L280.363636,284.454545 L285.818182,284.454545 C287.023636,284.454545 287.989091,283.478182 287.989091,282.272727 L288,269.181818 C288,267.976364 287.023636,267 285.818182,267 L285.818182,267 Z M285.818182,282.272727 L266.181818,282.272727 L266.181818,269.181818 L285.818182,269.181818 L285.818182,282.272727 L285.818182,282.272727 Z" id="Shape" fill="#000000" sketch:type="MSShapeGroup"></path>
        <path d="M279.6,90 L279.6,92.4 L282,92.4 L282,90 L284.4,90 L284.4,87.6 L282,87.6 L282,85.2 L279.6,85.2 L279.6,87.6 L277.2,87.6 L277.2,90 L279.6,90 L279.6,90 Z M285.6,72 L266.4,72 C265.074,72 264,73.074 264,74.4 L264,93.6 C264,94.926 265.074,96 266.4,96 L285.6,96 C286.926,96 288,94.926 288,93.6 L288,74.4 C288,73.074 286.926,72 285.6,72 L285.6,72 Z M267.6,75.6 L274.8,75.6 L274.8,78 L267.6,78 L267.6,75.6 L267.6,75.6 Z M285.6,93.6 L266.4,93.6 L285.6,74.4 L285.6,93.6 L285.6,93.6 Z" id="Shape" fill="#000000" sketch:type="MSShapeGroup"></path>
        <path d="M263.292,11.496 L252.498,0.702 C252.06,0.27 251.46,-1.77635684e-15 250.8,-1.77635684e-15 L242.4,-1.77635684e-15 C241.074,-1.77635684e-15 240,1.074 240,2.4 L240,10.8 C240,11.466 240.27,12.066 240.708,12.498 L251.508,23.298 C251.94,23.73 252.54,24 253.2,24 C253.86,24 254.466,23.73 254.898,23.298 L263.298,14.898 C263.73,14.46 264,13.86 264,13.2 C264,12.534 263.73,11.934 263.292,11.496 L263.292,11.496 Z M244.2,6 C243.204,6 242.4,5.196 242.4,4.2 C242.4,3.204 243.204,2.4 244.2,2.4 C245.196,2.4 246,3.204 246,4.2 C246,5.196 245.196,6 244.2,6 L244.2,6 Z" id="Shape" fill="#000000" sketch:type="MSShapeGroup"></path>
        <path d="M315,34 C313.3425,34 312,35.3425 312,37 C312,38.6575 313.3425,40 315,40 C316.6575,40 318,38.6575 318,37 C318,35.3425 316.6575,34 315,34 L315,34 Z M333,34 C331.3425,34 330,35.3425 330,37 C330,38.6575 331.3425,40 333,40 C334.6575,40 336,38.6575 336,37 C336,35.3425 334.6575,34 333,34 L333,34 Z M324,34 C322.3425,34 321,35.3425 321,37 C321,38.6575 322.3425,40 324,40 C325.6575,40 327,38.6575 327,37 C327,35.3425 325.6575,34 324,34 L324,34 Z" id="Shape" fill="#000000" sketch:type="MSShapeGroup"></path>
        <path d="M290.83,149.17 L300,158.34 L309.17,149.17 L312,152 L300,164 L288,152 L290.83,149.17 Z" id="Shape" fill="#000000" sketch:type="MSShapeGroup"></path>
        <path d="M340,102 L358,102 L358,100 L340,100 C338.895,100 338,100.895 338,102 L338,113 L336,113 L336,116 L350,116 L350,113 L340,113 L340,102 L340,102 Z M359,104 L353,104 C352.45,104 352,104.45 352,105 L352,115 C352,115.55 352.45,116 353,116 L359,116 C359.55,116 360,115.55 360,115 L360,105 C360,104.45 359.55,104 359,104 L359,104 Z M358,113 L354,113 L354,106 L358,106 L358,113 L358,113 Z" id="Shape" fill="#000000" sketch:type="MSShapeGroup"></path>
        <path d="M320.4,217 L318.204,219.4 L314.4,219.4 C313.074,219.4 312,220.474 312,221.8 L312,236.2 C312,237.526 313.074,238.6 314.4,238.6 L333.6,238.6 C334.926,238.6 336,237.526 336,236.2 L336,221.8 C336,220.474 334.926,219.4 333.6,219.4 L329.796,219.4 L327.6,217 L320.4,217 L320.4,217 Z M324,235 C320.688,235 318,232.312 318,229 C318,225.688 320.688,223 324,223 C327.312,223 330,225.688 330,229 C330,232.312 327.312,235 324,235 Z" id="Shape" fill="#000000" sketch:type="MSShapeGroup"></path>
        <path d="M379.355,178.035 C378.675,174.595 375.64,172 372,172 C369.11,172 366.605,173.64 365.35,176.035 C362.345,176.36 360,178.905 360,182 C360,185.315 362.685,188 366,188 L379,188 C381.76,188 384,185.76 384,183 C384,180.36 381.945,178.22 379.355,178.035 L379.355,178.035 Z" id="Shape" fill="#000000" sketch:type="MSShapeGroup"></path>
        <path d="M36.1450005,330.284375 C37.4081536,330.284375 38.4312506,329.261278 38.4312506,327.998125 C38.4312506,326.734971 37.4081536,325.711874 36.1450005,325.711874 C34.8818473,325.711874 33.8587503,326.734971 33.8587503,327.998125 C33.8587503,329.261278 34.8818473,330.284375 36.1450005,330.284375 L36.1450005,330.284375 Z M43.0037508,319.996249 L41.8606257,319.996249 L41.8606257,317.709999 C41.8606257,314.554974 39.3000256,311.994374 36.1450005,311.994374 C32.9899753,311.994374 30.4293752,314.554974 30.4293752,317.709999 L32.6013128,317.709999 C32.6013128,315.755255 34.1902566,314.166311 36.1450005,314.166311 C38.0997443,314.166311 39.6886881,315.755255 39.6886881,317.709999 L39.6886881,319.996249 L29.2862501,319.996249 C28.0230969,319.996249 27,321.019346 27,322.282499 L27,333.71375 C27,334.976903 28.0230969,336 29.2862501,336 L43.0037508,336 C44.266904,336 45.2900009,334.976903 45.2900009,333.71375 L45.2900009,322.282499 C45.2900009,321.019346 44.266904,319.996249 43.0037508,319.996249 L43.0037508,319.996249 Z M43.0037508,333.71375 L29.2862501,333.71375 L29.2862501,322.282499 L43.0037508,322.282499 L43.0037508,333.71375 L43.0037508,333.71375 Z" id="Shape" fill="#000000" sketch:type="MSShapeGroup"></path>
        <path d="M161.454545,303.272727 L163.636364,303.272727 L163.636364,294.545455 C163.636364,293.34 162.66,292.363636 161.454545,292.363636 L152.727273,292.363636 L152.727273,294.545455 L161.454545,294.545455 L161.454545,303.272727 L161.454545,303.272727 Z M150.545455,305.454545 L150.545455,288 L148.363636,288 L148.363636,292.363636 L144,292.363636 L144,294.545455 L148.363636,294.545455 L148.363636,305.454545 C148.363636,306.66 149.34,307.636364 150.545455,307.636364 L161.454545,307.636364 L161.454545,312 L163.636364,312 L163.636364,307.636364 L168,307.636364 L168,305.454545 L150.545455,305.454545 L150.545455,305.454545 Z" id="Shape" fill="#000000" sketch:type="MSShapeGroup"></path>
        <path d="M98.8300001,355 L108,345.83 L117.17,355 L120,352.17 L108,340.17 L96.0000001,352.17 L98.8300001,355 Z" id="Shape" fill="#000000" sketch:type="MSShapeGroup"></path>
        <path d="M216,333 L220.235294,333 L220.235294,314.647059 L216,314.647059 L216,333 L216,333 Z M235.764706,314.647059 L235.764706,333 L240,333 L240,314.647059 L235.764706,314.647059 L235.764706,314.647059 Z M221.647059,333 L234.352941,333 L234.352941,314.647059 L221.647059,314.647059 L221.647059,333 L221.647059,333 Z" id="Shape" fill="#000000" sketch:type="MSShapeGroup"></path>
        <path d="M348,298.68 C347.274,298.68 346.68,299.274 346.68,300 C346.68,300.726 347.274,301.32 348,301.32 C348.732,301.32 349.32,300.726 349.32,300 C349.32,299.274 348.732,298.68 348,298.68 L348,298.68 Z M348,288 C341.37,288 336,293.37 336,300 C336,306.624 341.37,312 348,312 C354.63,312 360,306.624 360,300 C360,293.37 354.63,288 348,288 L348,288 Z M350.628,302.628 L340.8,307.2 L345.372,297.372 L355.2,292.8 L350.628,302.628 L350.628,302.628 Z" id="Shape" fill="#000000" sketch:type="MSShapeGroup"></path>
        <path d="M304.535,338.515 C307.8,340.065 310.145,343.24 310.5,347 L312,347 C311.49,340.84 306.34,336 300.05,336 C299.825,336 299.61,336.02 299.385,336.035 L303.2,339.85 L304.535,338.515 L304.535,338.515 Z M298.28,337.745 C297.695,337.16 296.745,337.16 296.16,337.745 L289.795,344.11 C289.21,344.695 289.21,345.645 289.795,346.23 L301.815,358.25 C302.4,358.835 303.35,358.835 303.935,358.25 L310.3,351.885 C310.885,351.3 310.885,350.35 310.3,349.765 L298.28,337.745 L298.28,337.745 Z M302.88,357.19 L290.855,345.17 L297.22,338.805 L309.24,350.825 L302.88,357.19 L302.88,357.19 Z M295.565,357.485 C292.3,355.935 289.955,352.76 289.6,349 L288.1,349 C288.61,355.16 293.76,360 300.05,360 C300.275,360 300.49,359.98 300.715,359.965 L296.9,356.15 L295.565,357.485 L295.565,357.485 Z" id="Shape" fill="#000000" sketch:type="MSShapeGroup"></path>
        <path d="M181.708571,362.428571 C176.022857,362.428571 171.428571,367.034286 171.428571,372.714286 L168,372.714286 L172.451429,377.165714 L172.531429,377.331429 L177.142857,372.714286 L173.714286,372.714286 C173.714286,368.297143 177.297143,364.714286 181.714286,364.714286 C186.131429,364.714286 189.714286,368.297143 189.714286,372.714286 C189.714286,377.131429 186.131429,380.714286 181.714286,380.714286 C179.502857,380.714286 177.508571,379.811429 176.062857,378.365714 L174.445714,379.982857 C176.302857,381.845714 178.868571,383 181.708571,383 C187.394286,383 192,378.394286 192,372.714286 C192,367.034286 187.394286,362.428571 181.708571,362.428571 L181.708571,362.428571 Z M180.571429,368.142857 L180.571429,373.857143 L185.462857,376.76 L186.285714,375.371429 L182.285714,373 L182.285714,368.142857 L180.571429,368.142857 L180.571429,368.142857 Z" id="Shape" opacity="0.899999976" fill="#000000" sketch:type="MSShapeGroup"></path>
        <path d="M381.333333,360 L362.666667,360 C361.193333,360 360,361.193333 360,362.666667 L360,381.333333 C360,382.806667 361.193333,384 362.666667,384 L381.333333,384 C382.806667,384 384,382.806667 384,381.333333 L384,362.666667 C384,361.193333 382.806667,360 381.333333,360 L381.333333,360 Z M381.333333,381.333333 L372,370.666667 L372,381.333333 L362.666667,381.333333 L372,370.666667 L372,362.666667 L381.333333,362.666667 L381.333333,381.333333 L381.333333,381.333333 Z" id="Shape" fill="#000000" sketch:type="MSShapeGroup"></path>
    </g>
</svg>